# xmcd CD database file
#
# Track frame offsets:
#	150
#	18057
#	36029
#	54114
#	78119
#	93617
#	111142
#	134448
#	151043
#	169005
#	189540
#	207866
#	229234
#	245693
#	264368
#	284220
#
# Disc length: 4025 seconds
#
# Revision: 1
# Processed by: cddbd v1.5.2PL0 Copyright (c) Steve Scherf et al.
# Submitted via: CDex 1.51
#
DISCID=cf0fb710
DTITLE=Various Artist - EZ-PP1-CD-1
DYEAR=1900
DGENRE=Blues
TTITLE0=Alexandra Burke - Hallelujah
TTITLE1=Duffy - Mercy
TTITLE2=Pink - So What
TTITLE3=Leona Lewis - Run
TTITLE4=Katy Perry - I Kissed A Girl
TTITLE5=Amy Winehouse Ft Mark Ronson - Valerie 
TTITLE6=Kid Rock - All Summer Long
TTITLE7=Saturdays The - Up
TTITLE8=Katy Perry - Hot N Cold
TTITLE9=Beyonce - If I Were A Boy
TTITLE10=Duffy - Warwick Avenue
TTITLE11=Snow Patrol - Chasing Cars
TTITLE12=Kings Of Leon - Sex On Fire
TTITLE13=Beyonce - Listen
TTITLE14=Alicia Keys - No One
TTITLE15=Rihanna - Take A Bow
EXTD=
EXTT0=
EXTT1=
EXTT2=
EXTT3=
EXTT4=
EXTT5=
EXTT6=
EXTT7=
EXTT8=
EXTT9=
EXTT10=
EXTT11=
EXTT12=
EXTT13=
EXTT14=
EXTT15=
PLAYORDER=
